<?xml version="1.0"?>
<svg xmlns:rdf="http://www.w3.org/1999/02/22-rdf-syntax-ns#" xmlns="http://www.w3.org/2000/svg" xmlns:cc="http://web.resource.org/cc/" xmlns:xlink="http://www.w3.org/1999/xlink" xmlns:dc="http://purl.org/dc/elements/1.1/" xmlns:svg="http://www.w3.org/2000/svg" id="svg2233" viewBox="0 0 178.54 297.24" version="1.0">
  <defs id="defs2235">
    <linearGradient id="linearGradient5255">
      <stop id="stop5257" stop-opacity=".43842" offset="0"/>
      <stop id="stop5267" stop-opacity=".18227" offset=".25"/>
      <stop id="stop5261" stop-color="#fff" stop-opacity=".45813" offset=".5"/>
      <stop id="stop5263" stop-color="#fff" stop-opacity=".79803" offset=".75"/>
      <stop id="stop5265" stop-color="#fff" stop-opacity=".58128" offset=".875"/>
      <stop id="stop5269" stop-color="#eee" stop-opacity=".14286" offset=".9375"/>
      <stop id="stop5259" stop-color="#595959" stop-opacity=".21176" offset="1"/>
    </linearGradient>
    <linearGradient id="linearGradient5209">
      <stop id="stop5211" stop-color="#d2cfbc" offset="0"/>
      <stop id="stop5217" stop-color="#938e63" offset="1"/>
    </linearGradient>
    <linearGradient id="linearGradient4951">
      <stop id="stop4953" offset="0"/>
      <stop id="stop4955" stop-opacity="0" offset="1"/>
    </linearGradient>
    <linearGradient id="linearGradient6321" y2="430.29" xlink:href="#linearGradient5255" gradientUnits="userSpaceOnUse" x2="-42.458" gradientTransform="matrix(.89691 -.44221 -.44221 -.89691 63.919 665.47)" y1="426.4" x1="-2.9308"/>
    <linearGradient id="linearGradient6323" y2="427.28" xlink:href="#linearGradient4951" gradientUnits="userSpaceOnUse" x2="-9.3119" gradientTransform="matrix(.89691 -.44221 -.44221 -.89691 63.919 665.47)" y1="421.01" x1="7.499"/>
    <linearGradient id="linearGradient6325" gradientUnits="userSpaceOnUse" x2="55" gradientTransform="matrix(.89691 -.44221 -.44221 -.89691 63.919 665.47)" y1="422.88" y2="422.88">
      <stop id="stop5191" stop-color="#a19c73" offset="0"/>
      <stop id="stop5197" stop-color="#d3cfb8" offset=".5"/>
      <stop id="stop5199" stop-color="#dbdac7" offset=".75"/>
      <stop id="stop5193" stop-color="#c1bfa4" offset="1"/>
    </linearGradient>
    <radialGradient id="radialGradient6327" xlink:href="#linearGradient5209" gradientUnits="userSpaceOnUse" cy="238.48" cx="21.377" gradientTransform="matrix(1 0 0 8.332 7.9559e-7 -1713.1)" r="31"/>
    <linearGradient id="linearGradient6329" y2="572.99" xlink:href="#linearGradient5209" gradientUnits="userSpaceOnUse" x2="54.996" gradientTransform="matrix(.89691 -.44221 -.44221 -.89691 63.919 665.47)" y1="572.99" x1="-.00080454"/>
    <linearGradient id="linearGradient6331" y2="572.99" xlink:href="#linearGradient5209" spreadMethod="reflect" gradientUnits="userSpaceOnUse" x2="54.996" gradientTransform="matrix(.87857 -.43316 -.38006 -.77087 27.924 592.46)" y1="573.61" x1="22.738"/>
    <linearGradient id="linearGradient6333" y2="420.7" xlink:href="#linearGradient5255" gradientUnits="userSpaceOnUse" x2="51.687" gradientTransform="matrix(.89691 -.44221 -.44221 -.89691 63.919 665.47)" y1="423.51" x1="3.3181"/>
    <linearGradient id="linearGradient6335" y2="407.58" xlink:href="#linearGradient4951" gradientUnits="userSpaceOnUse" x2="25.709" gradientTransform="matrix(.89691 -.44221 -.44221 -.89691 64.169 667.09)" y1="423.31" x1="23.506"/>
  </defs>
  <g id="layer4" transform="translate(-49.689 -18.474)">
    <path id="path1648" d="m255.17 667.94c105.62-29.82 164.49-18.7 304.85-6.95 82.52 6.91 180.3-11.42 237.14-8.54 95.12 4.81 189.98 28.25 321.14 20.54" stroke="#fff" stroke-width="1px" display="none" fill="none"/>
    <g id="g6120" fill-rule="evenodd" transform="translate(241.41 -101.82)">
      <path id="path5271" d="m-160.43 305.62c16.78-4.39 26.89-13.11 50.35-13.18l-4.09-17.31c-22.65-0.63-33.79 8.85-50.69 13.28 6.49 1 11.32 2.24 19.05 1.47-2.61 6.25-9.56 10.57-14.62 15.74z" style="color:#000000" fill="#c40000"/>
      <path id="path5273" d="m-159.83 305.43c16.79-4.4 26.29-12.92 49.75-12.99l-3.62-16.75c-22.65-0.64-33.56 8.37-50.45 12.79 6.49 1.01 11.1 2.1 18.83 1.33-2.61 6.25-9.45 10.45-14.51 15.62z" style="color:#000000" fill="url(#linearGradient6321)"/>
      <path id="path5283" d="m-140.16 298.33c8.13-3.15 16.9-5.85 30.08-5.89l-3.62-16.75c-14.25-0.4-23.85 3.01-33.21 6.7l6.75 15.94z" style="color:#000000" fill="url(#linearGradient6323)"/>
      <path id="rect5178" d="m-30.203 412.38c-13.314 6.56-23.493 6.55-26.452 1.75l-134.64-266.29c2.57 5.2 15.7 3.97 29.32-2.75 13.62-6.71 22.58-16.37 20.02-21.57l128.36 269.38c2.009 5.28-3.288 12.91-16.603 19.48z" style="color:#000000" fill="url(#linearGradient6325)"/>
      <path id="path5183" d="m46 228.5a31 20.5 0 1 1 -62 0 31 20.5 0 1 1 62 0z" style="color:#000000" fill="url(#radialGradient6327)" transform="matrix(.79565 -.39228 -.22650 -.45939 -126.8 246.53)"/>
      <path id="path5219" d="m-161.65 145.77c-8.31 4.02-26.38 8.67-29.64 2.07 3.25 6.59 21.88 0.08 28.98-3.42 7.9-3.89 22.4-15.34 19.72-20.76-0.22-0.45-0.76-1.69-1.7-2.32 1.26 0.62 1.91 1.33 2.35 2.23 3.51 7.11-12.24 18.58-19.71 22.2z" style="color:#000000" fill="url(#linearGradient6329)"/>
      <path id="path5234" d="m-162.98 144.34c-8.14 3.95-25.64 8.91-28.44 3.23 2.79 5.67 20.92-0.97 27.87-4.39 7.73-3.82 21.93-14.55 19.64-19.21-1.3-2.62-3.65-3.24-5.52-3.39 2.2-0.19 4.74 0.45 6.14 3.28 3.01 6.11-12.38 16.93-19.69 20.48z" style="color:#000000" fill="url(#linearGradient6331)"/>
      <path id="rect5238" d="m-118.38 292.93c17.39 2.88 42.232-12.39 46.68-23.02l-8.243-17.12c-2.976 11.92-32.577 27.54-46.997 23.17l8.56 16.97z" style="color:#000000" fill="#c40000"/>
      <path id="path5245" d="m-118.38 292.93c17.39 2.88 42.232-12.39 46.68-23.02l-8.077-16.78c-2.976 11.92-32.573 27.54-46.993 23.17l8.39 16.63z" style="color:#000000" fill="url(#linearGradient6333)"/>
      <path id="path6109" d="m-72.219 269.88c-5.332 10.57-29.281 24.93-46.221 22.12l1.28 2.48c17.385 2.88 41.274-12.32 45.722-22.95l-0.781-1.65z" style="color:#000000" fill="url(#linearGradient6335)"/>
    </g>
  </g>
  <metadata>
    <rdf:RDF>
      <cc:Work>
        <dc:format>image/svg+xml</dc:format>
        <dc:type rdf:resource="http://purl.org/dc/dcmitype/StillImage"/>
        <cc:license rdf:resource="http://creativecommons.org/licenses/publicdomain/"/>
        <dc:publisher>
          <cc:Agent rdf:about="http://openclipart.org/">
            <dc:title>Openclipart</dc:title>
          </cc:Agent>
        </dc:publisher>
        <dc:title>Degree</dc:title>
        <dc:date>2007-11-05T16:58:26</dc:date>
        <dc:description>clip art, clipart, college, college, degree, degree, graduation, graduation, image, media, png, public domain, school, school, svg, university, university, </dc:description>
        <dc:source>http://openclipart.org/detail/7934/degree-by-benbois</dc:source>
        <dc:creator>
          <cc:Agent>
            <dc:title>BenBois</dc:title>
          </cc:Agent>
        </dc:creator>
        <dc:subject>
          <rdf:Bag>
            <rdf:li>clip art</rdf:li>
            <rdf:li>clipart</rdf:li>
            <rdf:li>college</rdf:li>
            <rdf:li>degree</rdf:li>
            <rdf:li>graduation</rdf:li>
            <rdf:li>image</rdf:li>
            <rdf:li>media</rdf:li>
            <rdf:li>png</rdf:li>
            <rdf:li>public domain</rdf:li>
            <rdf:li>school</rdf:li>
            <rdf:li>svg</rdf:li>
            <rdf:li>university</rdf:li>
          </rdf:Bag>
        </dc:subject>
      </cc:Work>
      <cc:License rdf:about="http://creativecommons.org/licenses/publicdomain/">
        <cc:permits rdf:resource="http://creativecommons.org/ns#Reproduction"/>
        <cc:permits rdf:resource="http://creativecommons.org/ns#Distribution"/>
        <cc:permits rdf:resource="http://creativecommons.org/ns#DerivativeWorks"/>
      </cc:License>
    </rdf:RDF>
  </metadata>
</svg>
